<?xml version="1.0" encoding="UTF-8"?>
<svg xmlns="http://www.w3.org/2000/svg" width="24" height="24" viewBox="0 0 24 24" fill="none" stroke="currentColor" stroke-width="1.6" stroke-linecap="round" stroke-linejoin="round">
  <!-- Left hemisphere -->
  <path d="M11.2 3.6 C7.6 3.6 4.8 6.4 4.8 10 C4.8 11.6 5.6 12.4 5.6 13.6 C5.6 14.8 4.4 15.6 4.4 17.2 C4.4 19.6 6.4 21.2 8.8 21.2 C10 21.2 11.2 20.4 11.2 19.2 L11.2 3.6 Z"/>
  <!-- Right hemisphere -->
  <path d="M12.8 3.6 C16.4 3.6 19.2 6.4 19.2 10 C19.2 11.6 18.4 12.4 18.4 13.6 C18.4 14.8 19.6 15.6 19.6 17.2 C19.6 19.6 17.6 21.2 15.2 21.2 C14 21.2 12.8 20.4 12.8 19.2 L12.8 3.6 Z"/>
  <!-- Folds left -->
  <path d="M11.2 7.6 C9 7.6 7.6 9.2 8.4 11.2" opacity="0.7"/>
  <path d="M11.2 13.2 C9 13.2 7.6 14.8 8.4 16.8" opacity="0.7"/>
  <!-- Folds right -->
  <path d="M12.8 7.6 C15 7.6 16.4 9.2 15.6 11.2" opacity="0.7"/>
  <path d="M12.8 13.2 C15 13.2 16.4 14.8 15.6 16.8" opacity="0.7"/>
  <!-- Synapse dots -->
  <circle cx="8.4" cy="11.2" r="0.6" fill="currentColor" stroke="none"/>
  <circle cx="15.6" cy="11.2" r="0.6" fill="currentColor" stroke="none"/>
  <circle cx="8.4" cy="16.8" r="0.6" fill="currentColor" stroke="none"/>
  <circle cx="15.6" cy="16.8" r="0.6" fill="currentColor" stroke="none"/>
</svg>
